<?xml version="1.0" encoding="utf-8"?>
<!-- www.vectorico.com  -->
<svg version="1.1" id="facebook" xmlns="http://www.w3.org/2000/svg" xmlns:xlink="http://www.w3.org/1999/xlink" x="0px" y="0px"
	 viewBox="0 0 64 64" style="enable-background:new 0 0 64 64;" xml:space="preserve">
<style type="text/css">
	.st0{fill:#3D5A98;}
	.st1{fill:#FFFFFF;}
</style>
<path id="Blue_1_" class="st0" d="M60.5,64c2,0,3.5-1.6,3.5-3.5V3.5c0-2-1.6-3.5-3.5-3.5H3.5C1.6,0,0,1.6,0,3.5v56.9
	c0,2,1.6,3.5,3.5,3.5H60.5z"/>
<path id="f" class="st1" d="M44.2,64V39.2h8.3l1.2-9.7h-9.6v-6.2c0-2.8,0.8-4.7,4.8-4.7l5.1,0V10c-0.9-0.1-3.9-0.4-7.5-0.4
	c-7.4,0-12.4,4.5-12.4,12.8v7.1h-8.3v9.7h8.3V64H44.2z"/>
</svg>
